<!-- icon666.com - MILLIONS vector ICONS FREE --><svg version="1.1" id="Capa_1" xmlns="http://www.w3.org/2000/svg" xmlns:xlink="http://www.w3.org/1999/xlink" x="0px" y="0px" viewBox="0 0 512 512" style="enable-background:new 0 0 512 512;" width = "32" height = "32"  xml:space="preserve"><path style="fill:#FF4F4F;" d="M343.358,196.621c-7.516,0-14.585-2.928-19.904-8.248c-10.973-10.973-10.973-28.825,0-39.797 c5.319-5.314,12.387-8.24,19.904-8.24c7.516,0,14.584,2.926,19.903,8.239c10.973,10.974,10.973,28.825,0,39.798 C357.944,193.692,350.875,196.621,343.358,196.621z"></path><path style="fill:#CCCCCC;" d="M95.447,123.786l0.754-1.329c9.516-16.753,21.312-32.218,35.059-45.965l1.419-1.42l152.625,152.625 v0.01l151.46,151.449l-1.42,1.419c-13.756,13.756-29.221,25.548-45.966,35.05l-1.328,0.753L95.447,123.786z"></path><path style="fill:#EFEFEF;" d="M283.31,443.553c-12.986,0-26.039-1.181-38.796-3.51c-43.034-7.846-82.197-28.409-113.252-59.466 c-33.957-33.956-55.129-77.019-61.226-124.529c-5.906-46.024,3.386-93.467,26.167-133.589l1.3-2.291l294.168,294.158l-2.29,1.301 C357.204,433.896,320.526,443.553,283.31,443.553z"></path><path style="fill:#CCCCCC;" d="M93.704,503.802v-88.516l38.976-38.966l1.419,1.419c30.477,30.477,68.907,50.656,111.135,58.356 l1.252,0.229l17.932,67.479H93.704z"></path><path d="M10.033,511.828h251.711c0.02,0,0.039,0.002,0.059,0.002c0.012,0,0.025-0.002,0.038-0.002h204.27 c5.541,0,10.033-4.492,10.033-10.033c0-5.541-4.492-10.033-10.033-10.033H269.524l-11.046-41.567 c8.257,0.92,16.535,1.38,24.796,1.38c38.424-0.001,76.454-9.884,110.066-28.97c17.372-9.857,33.415-22.089,47.681-36.354 c1.881-1.881,2.939-4.433,2.939-7.094c0-2.661-1.057-5.213-2.939-7.094L297.482,228.534l28.4-28.4 c5.421,2.989,11.446,4.493,17.476,4.493c9.263,0,18.527-3.526,25.579-10.577l0,0c14.102-14.102,14.101-37.047-0.004-51.152 c-14.103-14.088-37.048-14.088-51.155,0.003c-11.64,11.64-13.661,29.301-6.085,43.046l-28.395,28.395L139.774,70.818 c-3.919-3.917-10.27-3.917-14.188,0c-14.256,14.256-26.491,30.297-36.364,47.678c-0.051,0.09-0.1,0.183-0.151,0.273 c-0.004,0.007-0.008,0.014-0.012,0.021c-23.512,41.562-33.096,90.654-26.984,138.279c5.899,45.966,25.402,87.913,56.574,121.929 L95.71,401.93l-20.185-20.185c-3.918-3.918-10.27-3.918-14.189,0c-3.918,3.918-3.918,10.27,0,14.189l24.342,24.34v71.489H10.033 C4.492,491.762,0,496.254,0,501.795C0,507.336,4.492,511.828,10.033,511.828z M331.963,157.092 c3.142-3.139,7.269-4.708,11.396-4.708c4.125,0,8.251,1.568,11.39,4.704c6.278,6.277,6.278,16.493,0,22.772 c-6.28,6.28-16.499,6.28-22.78,0.003c-0.001-0.001-0.002-0.002-0.002-0.003c-0.001-0.001-0.002-0.001-0.002-0.002 C325.689,173.58,325.69,163.366,331.963,157.092z M132.853,92.272l143.091,143.091c0.084,0.091,0.172,0.182,0.261,0.271 l143.361,143.352c-9.2,8.344-19.116,15.793-29.603,22.281l-279.398-279.39C117.06,111.386,124.511,101.469,132.853,92.272z M100.493,140.182l271.164,271.155c-38.564,18.633-82.446,24.628-124.983,16.862c-40.616-7.405-77.582-26.817-106.9-56.136 C78.544,310.833,63.236,217.22,100.493,140.182z M105.743,420.275l27.1-27.093c29.391,26.904,65.033,45.261,103.942,53.507 l11.978,45.074h-143.02V420.275z"></path><path d="M425.309,177.745c0,5.541,4.492,10.033,10.033,10.033s10.033-4.492,10.033-10.033c0-61.183-49.771-110.96-110.95-110.96 c-5.541,0-10.033,4.492-10.033,10.033s4.492,10.033,10.033,10.033C384.539,86.851,425.309,127.626,425.309,177.745z"></path><path d="M334.424,0.17c-5.541,0-10.033,4.492-10.033,10.033s4.492,10.033,10.033,10.033c86.852,0,157.511,70.659,157.511,157.511 c0,5.541,4.492,10.033,10.033,10.033c5.541,0,10.033-4.492,10.033-10.033C512,79.83,432.34,0.17,334.424,0.17z"></path><path d="M157.703,248.155c2.567,0,5.136-0.98,7.094-2.939c3.918-3.918,3.918-10.27,0-14.188l-43.508-43.508 c-3.918-3.918-10.27-3.918-14.188,0c-3.918,3.918-3.918,10.27,0,14.188l43.508,43.508 C152.569,247.175,155.136,248.155,157.703,248.155z"></path><path d="M178.156,268.607c12.911,0,12.932-20.065,0-20.065C165.245,248.542,165.223,268.607,178.156,268.607z"></path></svg>