<!-- icon666.com - MILLIONS vector ICONS FREE --><svg xmlns="http://www.w3.org/2000/svg" viewBox="0 0 64 64" width="32" height="32">
<g id="Open_Folder" data-name="Open Folder"><path d="M59,58a3.9989,3.9989,0,0,0,4-4V23a7.9978,7.9978,0,0,0-8-8H19V58Z" style="fill:#ffb125"></path><path d="M59,58H5a3.9989,3.9989,0,0,1-4-4V16a3.9989,3.9989,0,0,1,4-4H16.94a6.0207,6.0207,0,0,1,4.86,2.47l.39.53,4.61,6.35A3.9941,3.9941,0,0,0,30.04,23H55V54a3.9946,3.9946,0,0,0,4,4Z" style="fill:#fcd354"></path><path d="M28,32h6V23C34,12.5137,42.0469,6,55,6c-7.001,0-13,9.3477-13,17v9h6L38,42Z" style="fill:#48acff"></path><path d="M55,14H48.49a1,1,0,0,0,0,2H55a7.0085,7.0085,0,0,1,7,7V54a3,3,0,1,1-6,0V23a1,1,0,0,0-1-1H46a1,1,0,0,0,0,2h8V54a4.9723,4.9723,0,0,0,1.0265,3H5a3.0033,3.0033,0,0,1-3-3V16a3.0033,3.0033,0,0,1,3-3H16.9448a5.016,5.016,0,0,1,4.0435,2.0586L25.9932,21.94A5.0144,5.0144,0,0,0,30.0371,24H33v7H28a1,1,0,0,0-.707,1.707l10,10a.9995.9995,0,0,0,1.414,0l10-10A1,1,0,0,0,48,31H43V23c0-7.0527,5.65-16,12-16a1,1,0,0,0,0-2c-9.38,0-16.2987,3.2986-19.68,9H28a1,1,0,0,0,0,2h6.3373a17.8007,17.8007,0,0,0-1.2891,6H30.0371A3.0107,3.0107,0,0,1,27.61,20.7646l-5.0049-6.8818A7.02,7.02,0,0,0,16.9448,11H5a5.0059,5.0059,0,0,0-5,5V54a5.0059,5.0059,0,0,0,5,5H59a5.0059,5.0059,0,0,0,5-5V23A9.01,9.01,0,0,0,55,14ZM48.0889,7.7705A21.8432,21.8432,0,0,0,41,23v9a1,1,0,0,0,1,1h3.5859L38,40.5859,30.4141,33H34a1,1,0,0,0,1-1V23C35,14.0293,40.9746,9.4492,48.0889,7.7705Z" style="fill:#202023"></path></g></svg>